<?xml version="1.0" encoding="UTF-8" standalone="no"?><!DOCTYPE svg PUBLIC "-//W3C//DTD SVG 1.1//EN" "http://www.w3.org/Graphics/SVG/1.1/DTD/svg11.dtd"><svg width="100%" height="100%" viewBox="0 0 416 45" version="1.1" xmlns="http://www.w3.org/2000/svg" xmlns:xlink="http://www.w3.org/1999/xlink" xml:space="preserve" style="fill-rule:evenodd;clip-rule:evenodd;stroke-linejoin:round;stroke-miterlimit:1.41421;"><g><rect x="0" y="11.528" width="2.098" height="23.398" style="fill:#fff;fill-rule:nonzero;"/><path d="M7.908,34.926l0,-23.303l13.845,0l0,1.938l-11.748,0l0,8.359l11.296,0l0,1.937l-11.296,0l0,9.134l12.232,0l0,1.935l-14.329,0Z" style="fill:#fff;fill-rule:nonzero;"/><path d="M27.305,34.926l0,-23.303l13.845,0l0,1.938l-11.748,0l0,8.359l11.298,0l0,1.937l-11.298,0l0,9.134l12.232,0l0,1.935l-14.329,0Z" style="fill:#fff;fill-rule:nonzero;"/><path d="M46.863,34.926l0,-23.303l13.847,0l0,1.938l-11.749,0l0,8.359l11.296,0l0,1.937l-11.296,0l0,9.134l12.232,0l0,1.935l-14.33,0Z" style="fill:#fff;fill-rule:nonzero;"/><path d="M123.872,35.392c-3.338,0 -5.843,-1.16 -7.466,-3.478c-1.53,-2.179 -2.226,-4.87 -2.226,-8.395c0,-5.241 1.669,-8.255 3.896,-10.25c1.715,-1.53 3.756,-2.364 6.028,-2.364c2.505,0 4.545,0.834 6.308,2.457l-2.226,2.923c-1.531,-1.346 -2.598,-1.809 -4.082,-1.809c-1.762,0 -3.292,0.928 -4.081,2.505c-0.788,1.576 -1.112,3.893 -1.112,7.094c0,3.246 0.648,5.381 1.855,6.677c0.835,0.882 1.994,1.394 3.338,1.394c1.716,0 3.432,-0.834 4.823,-2.411l2.087,2.641c-2.225,2.182 -4.173,3.016 -7.142,3.016Z" style="fill:#fff;fill-rule:nonzero;"/><path d="M142.203,14.336c-3.71,0 -5.241,2.645 -5.241,8.488c0,7.094 1.809,9.459 5.426,9.459c3.246,0 5.24,-2.504 5.24,-8.578c0,-7.187 -2.087,-9.369 -5.425,-9.369Zm0.092,21.24c-6.214,0 -10.063,-4.73 -10.063,-12.289c0,-7.513 3.849,-12.243 9.971,-12.243c6.863,0 10.202,5.474 10.202,12.475c0,7.374 -3.942,12.057 -10.11,12.057Z" style="fill:#fff;fill-rule:nonzero;"/><path d="M181.007,34.926l0,-16.648c0,-2.641 -0.835,-3.57 -2.783,-3.57c-2.133,0 -3.663,1.391 -5.425,3.154l0,17.064l-4.174,0l0,-16.555c0,-2.597 -0.743,-3.57 -2.876,-3.57c-1.577,0 -3.339,0.788 -5.333,2.689l0,17.436l-4.22,0l0,-17.064c0,-3.293 -0.186,-4.174 -0.835,-5.797l3.989,-0.974c0.464,0.787 0.788,1.948 0.788,3.245c1.994,-2.086 4.359,-3.292 6.539,-3.292c2.18,0 4.359,1.16 5.519,3.664c2.318,-2.458 4.73,-3.664 7.095,-3.664c3.618,0 5.936,2.272 5.936,6.538l0,17.344l-4.22,0Z" style="fill:#fff;fill-rule:nonzero;"/><path d="M199.046,14.708c-2.088,0 -3.989,1.019 -5.565,2.874l0,11.827c1.438,1.53 3.246,2.55 4.962,2.55c3.756,0 5.472,-2.876 5.472,-8.534c0,-5.517 -1.207,-8.717 -4.869,-8.717Zm0.37,20.684c-2.133,0 -4.221,-0.788 -6.029,-2.411c0.094,0.742 0.094,1.76 0.094,2.595l0,8.164l-4.174,0.971l0,-27.314c0,-2.735 -0.185,-4.219 -0.511,-5.704l4.127,-0.696c0.187,0.696 0.28,1.394 0.28,3.339c1.808,-2.178 4.127,-3.245 6.585,-3.245c4.729,0 8.717,3.848 8.717,11.825c0,7.235 -3.153,12.476 -9.089,12.476Z" style="fill:#fff;fill-rule:nonzero;"/><path d="M228.308,35.715c-1.158,-0.882 -1.764,-1.762 -2.18,-3.339c-1.855,2.275 -4.127,3.339 -7.003,3.339c-2.967,0 -5.286,-1.343 -6.26,-3.476c-0.418,-0.927 -0.557,-2.228 -0.557,-3.898l0,-16.51l4.221,-0.834l0,16.187c0,2.364 0.23,3.293 1.066,4.081c0.604,0.556 1.67,1.018 2.69,1.018c2.086,0 4.314,-1.623 5.287,-3.662l0,-16.697l4.219,-0.833l0,17.484c0,2.364 0.511,4.034 1.437,4.822l-2.92,2.318Z" style="fill:#fff;fill-rule:nonzero;"/><path d="M245.296,14.708l-4.593,0l0,14.005c0,2.874 0.697,3.756 3.015,3.756c0.789,0 1.44,-0.139 2.18,-0.463l0.512,2.598c-1.299,0.648 -2.692,0.972 -4.221,0.972c-1.531,0 -3.201,-0.463 -3.943,-1.159c-0.973,-0.88 -1.715,-1.345 -1.715,-4.729l0,-14.98l-2.781,0l0,-3.015l2.781,0c0,-1.807 0.045,-4.174 0.277,-5.934l4.406,-1.021c-0.185,1.669 -0.418,4.59 -0.418,6.955l5.659,0l-1.159,3.015Z" style="fill:#fff;fill-rule:nonzero;"/><path d="M260.183,15.82c-0.742,-0.925 -1.855,-1.623 -3.341,-1.623c-3.245,0 -4.868,2.643 -4.868,6.864l9.647,0c0,-2.226 -0.512,-4.08 -1.438,-5.241Zm-8.256,8.394l0,0.559c0,1.993 0.278,3.522 0.975,4.636c1.205,1.856 3.107,2.737 5.332,2.737c2.18,0 4.033,-0.741 5.705,-2.228l1.621,2.551c-2.271,1.995 -5.008,2.97 -8.021,2.97c-6.446,0 -10.389,-4.687 -10.389,-12.289c0,-4.037 0.789,-6.632 2.783,-8.999c1.856,-2.179 4.127,-3.2 7.002,-3.2c2.597,0 4.686,0.835 6.309,2.504c2.039,2.088 2.781,4.686 2.828,10.018c0,0.139 0,0.465 0,0.741l-14.145,0Z" style="fill:#fff;fill-rule:nonzero;"/><path d="M280.308,15.451c-0.416,-0.14 -0.74,-0.234 -1.203,-0.234c-2.6,0 -4.824,2.18 -4.824,4.731l0,14.978l-4.268,0l0,-17.064c0,-2.83 -0.324,-4.361 -0.881,-5.797l4.127,-1.068c0.418,0.881 0.789,2.412 0.789,3.572l0,0.416c1.856,-2.689 3.85,-4.034 6.309,-4.034c0.557,0 1.064,0.093 1.437,0.233l-1.486,4.267Z" style="fill:#fff;fill-rule:nonzero;"/><path d="M297.273,35.576c-2.83,0 -5.982,-0.879 -8.674,-2.458l1.531,-3.06c2.229,1.254 4.87,2.318 7.465,2.318c2.553,0 4.315,-1.483 4.315,-3.755c0,-1.996 -1.205,-3.154 -3.895,-3.665l-2.83,-0.555c-3.662,-0.696 -5.656,-3.015 -5.656,-6.446c0,-4.267 3.385,-7.235 8.392,-7.235c2.83,0 5.426,0.788 7.329,1.901l-1.438,3.016c-2.133,-1.068 -3.85,-1.671 -5.703,-1.671c-2.459,0 -4.035,1.392 -4.035,3.477c0,1.67 0.834,2.597 3.293,3.156l3.013,0.694c4.268,0.975 6.03,3.433 6.03,6.493c0,4.636 -3.711,7.79 -9.137,7.79Z" style="fill:#fff;fill-rule:nonzero;"/><path d="M319.07,14.336c-3.711,0 -5.242,2.645 -5.242,8.488c0,7.094 1.808,9.459 5.425,9.459c3.247,0 5.241,-2.504 5.241,-8.578c0,-7.187 -2.086,-9.369 -5.424,-9.369Zm0.092,21.24c-6.215,0 -10.063,-4.73 -10.063,-12.289c0,-7.513 3.848,-12.243 9.971,-12.243c6.861,0 10.201,5.474 10.201,12.475c0,7.374 -3.941,12.057 -10.109,12.057Z" style="fill:#fff;fill-rule:nonzero;"/><path d="M341.654,35.392c-3.34,0 -5.846,-1.16 -7.469,-3.478c-1.529,-2.179 -2.225,-4.87 -2.225,-8.395c0,-5.241 1.67,-8.255 3.897,-10.25c1.715,-1.53 3.756,-2.364 6.027,-2.364c2.506,0 4.545,0.834 6.309,2.457l-2.227,2.923c-1.531,-1.346 -2.597,-1.809 -4.082,-1.809c-1.761,0 -3.291,0.928 -4.08,2.505c-0.789,1.576 -1.113,3.893 -1.113,7.094c0,3.246 0.648,5.381 1.855,6.677c0.834,0.882 1.995,1.394 3.338,1.394c1.717,0 3.434,-0.834 4.824,-2.411l2.086,2.641c-2.226,2.182 -4.173,3.016 -7.14,3.016Z" style="fill:#fff;fill-rule:nonzero;"/><path d="M351.669,34.926l0,-23.095l4.407,-0.695l0,23.79l-4.407,0Zm2.18,-27.314c-1.67,0 -2.967,-1.392 -2.967,-3.06c0,-1.717 1.344,-3.107 3.014,-3.107c1.67,0 3.061,1.344 3.061,3.107c0,1.668 -1.391,3.06 -3.108,3.06Z" style="fill:#fff;fill-rule:nonzero;"/><path d="M372.818,15.82c-0.742,-0.925 -1.856,-1.623 -3.342,-1.623c-3.244,0 -4.867,2.643 -4.867,6.864l9.646,0c0,-2.226 -0.511,-4.08 -1.437,-5.241Zm-8.256,8.394l0,0.559c0,1.993 0.279,3.522 0.975,4.636c1.205,1.856 3.105,2.737 5.332,2.737c2.179,0 4.037,-0.741 5.705,-2.228l1.623,2.551c-2.274,1.995 -5.008,2.97 -8.024,2.97c-6.447,0 -10.386,-4.687 -10.386,-12.289c0,-4.037 0.787,-6.632 2.781,-8.999c1.853,-2.179 4.127,-3.2 7.004,-3.2c2.595,0 4.683,0.835 6.306,2.504c2.039,2.088 2.782,4.686 2.829,10.018c0,0.139 0,0.465 0,0.741l-14.145,0Z" style="fill:#fff;fill-rule:nonzero;"/><path d="M391.738,14.708l-4.59,0l0,14.005c0,2.874 0.695,3.756 3.014,3.756c0.787,0 1.437,-0.139 2.179,-0.463l0.51,2.598c-1.299,0.648 -2.689,0.972 -4.221,0.972c-1.529,0 -3.199,-0.463 -3.939,-1.159c-0.977,-0.88 -1.717,-1.345 -1.717,-4.729l0,-14.98l-2.783,0l0,-3.015l2.783,0c0,-1.807 0.045,-4.174 0.277,-5.934l4.407,-1.021c-0.186,1.669 -0.418,4.59 -0.418,6.955l5.658,0l-1.16,3.015Z" style="fill:#fff;fill-rule:nonzero;"/><path d="M406.996,35.668c-1.114,3.293 -2.319,5.797 -3.942,7.145c-1.113,0.927 -2.736,1.669 -4.312,1.992l-1.346,-2.781c1.67,-0.418 2.877,-1.207 4.035,-2.645c0.742,-0.926 1.205,-2.18 1.901,-4.546l-1.67,0.234c-0.602,-2.737 -1.297,-5.009 -2.225,-7.746l-5.148,-15.256l4.312,-0.974l4.453,14.607c0.416,1.439 1.022,3.896 1.346,5.473l0.277,0c0.371,-1.577 0.928,-3.665 1.576,-5.751l4.127,-13.727l4.733,0l-8.117,23.975Z" style="fill:#fff;fill-rule:nonzero;"/><path d="M87.356,2.333c-11.163,0 -20.21,9.049 -20.21,20.211c0,11.162 9.047,20.211 20.21,20.211c11.162,0 20.21,-9.049 20.21,-20.211c0,-11.162 -9.048,-20.211 -20.21,-20.211Zm22.457,20.211c0,12.403 -10.056,22.456 -22.457,22.456c-12.402,0 -22.457,-10.053 -22.457,-22.456c0,-12.402 10.055,-22.457 22.457,-22.457c12.401,0 22.457,10.055 22.457,22.457Z" style="fill:#fff;fill-rule:nonzero;"/><path d="M83.747,15.864l0.026,0l0.031,13.581l-0.836,0c-3.749,0 -6.788,-3.04 -6.788,-6.79c0,-3.75 3.039,-6.791 6.788,-6.791l0.779,0Zm6.442,13.581l-0.026,0l-0.031,-13.581l0.834,0c3.749,0 6.79,3.04 6.79,6.79c0,3.75 -3.041,6.791 -6.79,6.791l-0.777,0Zm6.363,-16.2l-6.425,0l-0.018,-8.872l-2.607,0c-1.258,2.4 -4.722,4.181 -8.911,4.423l-0.02,0.01l0,1.971l5.232,0l0,2.468l-5.755,0c-5.196,0 -8.631,4.213 -8.631,9.409c0,5.196 3.435,9.409 8.631,9.409l5.755,0l0,0.449c0,2.551 -2.845,4.617 -5.395,4.617l0,1.972l17.158,0l0,-1.972c-2.552,0 -5.398,-2.066 -5.398,-4.617l0,-0.449l6.384,0c5.198,0 8.633,-4.213 8.633,-9.409c0,-5.196 -3.435,-9.409 -8.633,-9.409Z" style="fill:#fff;fill-rule:nonzero;"/><path d="M108.292,40.567l0.283,0c0.364,0 0.526,-0.04 0.636,-0.142c0.102,-0.1 0.162,-0.252 0.162,-0.424c0,-0.262 -0.101,-0.444 -0.303,-0.514c-0.091,-0.041 -0.273,-0.062 -0.475,-0.062l-0.303,0l0,1.142Zm0.738,-1.819c0.747,0 1.242,0.496 1.242,1.233c0,0.637 -0.424,1.152 -0.939,1.162c0.081,0.07 0.121,0.111 0.171,0.182c0.243,0.302 1.011,1.636 1.011,1.636l-1,0c-0.162,-0.283 -0.233,-0.394 -0.394,-0.697c-0.414,-0.758 -0.546,-0.96 -0.697,-1.03c-0.041,-0.01 -0.081,-0.03 -0.132,-0.03l0,1.757l-0.828,0l0,-4.213l1.566,0Zm-0.253,-0.877c-1.596,0 -2.879,1.333 -2.879,3.009c0,1.677 1.283,3.031 2.879,3.031c1.596,0 2.889,-1.354 2.889,-3.031c0,-1.676 -1.293,-3.009 -2.889,-3.009Zm0,6.767c-2.05,0 -3.737,-1.657 -3.737,-3.758c0,-2.091 1.687,-3.757 3.737,-3.757c2.051,0 3.738,1.666 3.738,3.757c0,2.101 -1.687,3.758 -3.738,3.758Z" style="fill:#fff;fill-rule:nonzero;"/></g></svg>