<?xml version="1.0" encoding="UTF-8" standalone="no"?><!DOCTYPE svg PUBLIC "-//W3C//DTD SVG 1.1//EN" "http://www.w3.org/Graphics/SVG/1.1/DTD/svg11.dtd"><svg width="100%" height="100%" viewBox="0 0 426 109" version="1.1" xmlns="http://www.w3.org/2000/svg" xmlns:xlink="http://www.w3.org/1999/xlink" xml:space="preserve" style="fill-rule:evenodd;clip-rule:evenodd;stroke-linejoin:round;stroke-miterlimit:1.41421;"><g id="图层-1"><path d="M171.797,59.48l20.822,0l0,-16.641l9.359,0l0,41.071l-9.359,0l0,-17.159l-20.822,0l0,17.159l-9.36,0l0,-41.071l9.36,0l0,16.641Z" style="fill:#fff;fill-rule:nonzero;"/><path d="M218.944,67.437c0,7.267 2.298,10.288 10.032,10.288c7.738,0 9.975,-3.021 9.975,-10.288l0,-24.598l9.354,0l0,24.823c0,5.265 -0.626,8.868 -2.606,11.042c-3.656,4.007 -8.985,5.665 -16.723,5.665c-7.734,0 -13.122,-1.658 -16.777,-5.665c-2.051,-2.224 -2.546,-5.837 -2.546,-11.042l0,-24.823l9.291,0l0,24.598Z" style="fill:#fff;fill-rule:nonzero;"/><path d="M267.024,66.812l13.267,0l-6.749,-15.787l-6.518,15.787Zm11.833,-23.973l18.952,41.071l-10.4,0l-4.089,-9.781l-19.327,0l-3.956,9.781l-9.912,0l18.826,-41.071l9.906,0Z" style="fill:#fff;fill-rule:nonzero;"/><path d="M302.061,42.839l10.282,31.578l8.668,-31.578l11.027,0l9.968,31.578l9.598,-31.578l9.602,0l-13.753,41.07l-11.457,0l-9.478,-30.656l-8.287,30.656l-11.404,0l-14.811,-41.07l10.045,0Z" style="fill:#fff;fill-rule:nonzero;"/><path d="M373.798,59.537l25.88,0l0,7.149l-25.939,0c0.059,7.387 3.215,10.075 10.583,10.075l15.356,0l0,7.148l-15.788,0c-5.387,0 -9.537,-0.403 -13.871,-3.601c-4.586,-3.374 -6.81,-8.755 -6.81,-16.194c0,-14.517 6.631,-21.275 20.933,-21.275l15.536,0l0,7.154l-15.356,0c-6.746,0 -10.151,3.084 -10.524,9.544" style="fill:#fff;fill-rule:nonzero;"/><rect x="407.922" y="42.839" width="9.779" height="41.07" style="fill:#fff;fill-rule:nonzero;"/><clipPath id="_clip1"><path d="M28.769,20.858c-0.495,0.476 -11.122,10.826 -10.346,21.188c0.425,8.029 6.465,12.782 6.465,12.782c9.733,9.482 33.298,21.458 38.774,24.174c0.077,0.029 0.358,0.123 0.526,-0.087c0,0 0.228,-0.176 0.108,-0.474l0.003,0c-14.773,-32.267 -34.893,-56.846 -35.498,-57.583l-0.032,0Z"/></clipPath><g clip-path="url(#_clip1)"><rect x="17.623" y="20.857" width="46.765" height="58.272" style="fill:#a00001;fill-rule:nonzero;"/></g><clipPath id="_clip2"><path d="M28.768,20.859c-0.506,0.488 -11.12,10.831 -10.345,21.187c0.425,8.029 6.465,12.782 6.465,12.782c9.733,9.482 33.298,21.458 38.774,24.174c0.077,0.029 0.358,0.123 0.526,-0.087c0,0 0.228,-0.176 0.108,-0.474l0.003,0c-14.768,-32.255 -34.878,-56.828 -35.497,-57.582l-0.034,0Z"/></clipPath><g clip-path="url(#_clip2)"><rect x="17.63" y="20.858" width="46.759" height="58.266" style="fill:url(#_Radial3);fill-rule:nonzero;"/></g><path d="M59.263,86.687l-38.425,1.34l0,0.048c4.256,7.564 11.407,13.425 18.856,11.62c5.151,-1.286 16.818,-9.424 20.667,-12.174l-0.009,-0.008c0.295,-0.272 0.19,-0.489 0.19,-0.489c-0.062,-0.225 -0.249,-0.307 -0.377,-0.337l-0.902,0Z" style="fill:#a00001;fill-rule:nonzero;"/><clipPath id="_clip4"><path d="M59.237,86.688l-38.399,1.34l0,0.047c4.256,7.564 11.407,13.425 18.856,11.62c5.151,-1.286 16.818,-9.424 20.667,-12.174l-0.009,-0.008c0.295,-0.272 0.19,-0.489 0.19,-0.489c-0.061,-0.223 -0.246,-0.305 -0.373,-0.336l-0.932,0Z"/></clipPath><g clip-path="url(#_clip4)"><rect x="20.837" y="86.689" width="39.809" height="14.815" style="fill:url(#_Radial5);fill-rule:nonzero;"/></g><clipPath id="_clip6"><path d="M11.422,70.418c4.256,8.997 12.382,11.722 12.382,11.722c3.753,1.539 7.502,1.646 7.502,1.646c0.59,0.106 23.332,0.008 29.427,-0.019c0.257,-0.006 0.4,-0.266 0.4,-0.266c0.192,-0.305 -0.146,-0.581 -0.146,-0.581l0.003,-0.009c-17.229,-11.621 -50.623,-29.462 -50.623,-29.462c-3.035,9.397 1.055,16.969 1.055,16.969Z"/></clipPath><g clip-path="url(#_clip6)"><rect x="7.356" y="53.418" width="54.028" height="30.466" style="fill:#a00001;fill-rule:nonzero;"/></g><clipPath id="_clip7"><path d="M11.422,70.418c4.256,8.997 12.382,11.722 12.382,11.722c3.753,1.539 7.502,1.646 7.502,1.646c0.59,0.106 23.332,0.008 29.427,-0.019c0.257,-0.006 0.4,-0.266 0.4,-0.266c0.192,-0.305 -0.146,-0.581 -0.146,-0.581l0.003,-0.009c-17.229,-11.621 -50.623,-29.462 -50.623,-29.462c-3.035,9.397 1.055,16.969 1.055,16.969Z"/></clipPath><g clip-path="url(#_clip7)"><rect x="7.357" y="53.447" width="53.967" height="30.437" style="fill:url(#_Radial8);fill-rule:nonzero;"/></g><clipPath id="_clip9"><path d="M57.424,5.1c-10.386,2.68 -12.841,12.11 -12.841,12.11c-1.896,5.932 0.049,12.443 0.049,12.443c3.468,15.382 20.528,40.656 24.193,45.964c0.258,0.26 0.465,0.165 0.465,0.165c0.392,-0.112 0.367,-0.489 0.367,-0.489l0.005,0.005c5.643,-56.437 -5.923,-71.395 -5.923,-71.395c-1.707,0.146 -6.315,1.197 -6.315,1.197Z"/></clipPath><g clip-path="url(#_clip9)"><rect x="42.721" y="3.871" width="32.585" height="71.98" style="fill:#a00001;fill-rule:nonzero;"/></g><clipPath id="_clip10"><path d="M57.424,5.1c-10.386,2.68 -12.841,12.11 -12.841,12.11c-1.896,5.932 0.049,12.443 0.049,12.443c3.468,15.382 20.528,40.656 24.193,45.964c0.258,0.26 0.465,0.165 0.465,0.165c0.392,-0.112 0.367,-0.489 0.367,-0.489l0.005,0.005c5.643,-56.437 -5.923,-71.395 -5.923,-71.395c-1.707,0.146 -6.315,1.197 -6.315,1.197Z"/></clipPath><g clip-path="url(#_clip10)"><rect x="42.721" y="3.902" width="32.584" height="71.95" style="fill:url(#_Radial11);fill-rule:nonzero;"/></g><path d="M76.422,75.338l0.006,0c0.041,0.358 0.3,0.431 0.3,0.431c0.376,0.148 0.568,-0.215 0.568,-0.215l0.003,0.004c3.764,-5.445 20.724,-30.585 24.173,-45.905c0,0 1.873,-7.422 0.065,-12.443c0,0 -2.564,-9.572 -12.965,-12.105c0,0 -2.998,-0.754 -6.176,-1.202c0,0 -11.628,14.965 -5.974,71.435Z" style="fill:#a00001;fill-rule:nonzero;"/><path d="M76.422,75.338l0.006,0c0.041,0.358 0.3,0.431 0.3,0.431c0.376,0.148 0.568,-0.215 0.568,-0.215l0.003,0.004c3.764,-5.445 20.724,-30.585 24.173,-45.905c0,0 1.873,-7.422 0.065,-12.443c0,0 -2.564,-9.572 -12.965,-12.105c0,0 -2.998,-0.754 -6.176,-1.202c0,0 -11.628,14.965 -5.974,71.435Z" style="fill:url(#_Radial12);fill-rule:nonzero;"/><clipPath id="_clip13"><path d="M86.014,86.697c0,0 -0.346,0.045 -0.442,0.3c0,0 -0.081,0.354 0.152,0.53l-0.005,0.003c3.754,2.691 15.139,10.654 20.627,12.197c0,0 10.14,3.464 18.944,-11.674l-39.275,-1.366l-0.001,0.01Z"/></clipPath><g clip-path="url(#_clip13)"><rect x="85.491" y="86.686" width="39.799" height="16.504" style="fill:#a00001;fill-rule:nonzero;"/></g><path d="M86.014,86.697c0,0 -0.346,0.045 -0.442,0.3c0,0 -0.081,0.354 0.152,0.53l-0.005,0.003c3.754,2.691 15.139,10.654 20.627,12.197c0,0 10.139,3.46 18.942,-11.671l0,-0.003l-39.273,-1.366l-0.001,0.01Z" style="fill:url(#_Radial14);fill-rule:nonzero;"/><clipPath id="_clip15"><path d="M85.148,82.89l0.004,0.006c0,0 -0.311,0.202 -0.201,0.569c0,0 0.158,0.293 0.402,0.293l0,0.003c6.171,0.015 29.538,0.037 30.13,-0.071c0,0 3.017,-0.118 6.755,-1.55c0,0 8.311,-2.643 12.623,-12.086c0,0 3.851,-7.694 0.874,-16.688c0,0 -33.347,17.893 -50.587,29.524Z"/></clipPath><g clip-path="url(#_clip15)"><rect x="84.842" y="53.366" width="53.871" height="30.432" style="fill:#a00001;fill-rule:nonzero;"/></g><clipPath id="_clip16"><path d="M85.148,82.89l0.004,0.006c0,0 -0.311,0.202 -0.201,0.569c0,0 0.158,0.293 0.402,0.293l0,0.003c6.171,0.015 29.538,0.037 30.13,-0.071c0,0 3.017,-0.118 6.755,-1.55c0,0 8.311,-2.643 12.623,-12.086c0,0 3.851,-7.694 0.874,-16.688c0,0 -33.347,17.893 -50.587,29.524Z"/></clipPath><g clip-path="url(#_clip16)"><rect x="84.842" y="53.366" width="53.87" height="30.433" style="fill:url(#_Radial17);fill-rule:nonzero;"/></g><clipPath id="_clip18"><path d="M81.879,78.289l0.009,0c0,0 -0.174,0.378 0.107,0.626c0,0 0.273,0.203 0.532,0.033l0,0.006c5.618,-2.793 29.003,-14.689 38.688,-24.126c0,0 6.133,-4.931 6.454,-12.835c0.711,-10.986 -10.344,-21.152 -10.344,-21.152c0,0 -20.456,24.76 -35.446,57.448Z"/></clipPath><g clip-path="url(#_clip18)"><rect x="81.714" y="20.841" width="46.666" height="58.276" style="fill:#a00001;fill-rule:nonzero;"/></g><clipPath id="_clip19"><path d="M117.324,20.842c-0.137,0.165 -20.506,24.868 -35.445,57.447l0.009,0c0,0 -0.174,0.378 0.107,0.626c0,0 0.273,0.203 0.532,0.033l0,0.006c5.618,-2.793 29.003,-14.689 38.688,-24.126c0,0 6.133,-4.931 6.454,-12.835c0.707,-10.927 -10.225,-21.043 -10.343,-21.151l-0.002,0Z"/></clipPath><g clip-path="url(#_clip19)"><rect x="81.713" y="20.842" width="46.667" height="58.275" style="fill:url(#_Radial20);fill-rule:nonzero;"/></g></g><defs><radialGradient id="_Radial3" cx="0" cy="0" r="1" gradientUnits="userSpaceOnUse" gradientTransform="matrix(92.0575,0,0,92.0574,89.6946,15.7017)"><stop offset="0" style="stop-color:#f7bfa4;stop-opacity:1"/><stop offset="0.44" style="stop-color:#e60013;stop-opacity:1"/><stop offset="0.88" style="stop-color:#d1000f;stop-opacity:1"/><stop offset="1" style="stop-color:#a00001;stop-opacity:1"/></radialGradient><radialGradient id="_Radial5" cx="0" cy="0" r="1" gradientUnits="userSpaceOnUse" gradientTransform="matrix(92.055,0,0,92.0549,89.6903,15.6977)"><stop offset="0" style="stop-color:#f7bfa4;stop-opacity:1"/><stop offset="0.44" style="stop-color:#e60013;stop-opacity:1"/><stop offset="0.88" style="stop-color:#d1000f;stop-opacity:1"/><stop offset="1" style="stop-color:#a00001;stop-opacity:1"/></radialGradient><radialGradient id="_Radial8" cx="0" cy="0" r="1" gradientUnits="userSpaceOnUse" gradientTransform="matrix(92.0411,0,0,92.041,89.6894,15.7108)"><stop offset="0" style="stop-color:#f7bfa4;stop-opacity:1"/><stop offset="0.44" style="stop-color:#e60013;stop-opacity:1"/><stop offset="0.88" style="stop-color:#d1000f;stop-opacity:1"/><stop offset="1" style="stop-color:#a00001;stop-opacity:1"/></radialGradient><radialGradient id="_Radial11" cx="0" cy="0" r="1" gradientUnits="userSpaceOnUse" gradientTransform="matrix(92.0476,0,0,92.0475,89.6885,15.7097)"><stop offset="0" style="stop-color:#f7bfa4;stop-opacity:1"/><stop offset="0.44" style="stop-color:#e60013;stop-opacity:1"/><stop offset="0.88" style="stop-color:#d1000f;stop-opacity:1"/><stop offset="1" style="stop-color:#a00001;stop-opacity:1"/></radialGradient><radialGradient id="_Radial12" cx="0" cy="0" r="1" gradientUnits="userSpaceOnUse" gradientTransform="matrix(92.1519,0,0,92.1519,89.7095,15.7105)"><stop offset="0" style="stop-color:#f7bfa4;stop-opacity:1"/><stop offset="0.44" style="stop-color:#e60013;stop-opacity:1"/><stop offset="0.88" style="stop-color:#d1000f;stop-opacity:1"/><stop offset="1" style="stop-color:#a00001;stop-opacity:1"/></radialGradient><radialGradient id="_Radial14" cx="0" cy="0" r="1" gradientUnits="userSpaceOnUse" gradientTransform="matrix(92.1261,0,0,92.1261,89.7094,15.7287)"><stop offset="0" style="stop-color:#f7bfa4;stop-opacity:1"/><stop offset="0.44" style="stop-color:#e60013;stop-opacity:1"/><stop offset="0.88" style="stop-color:#d1000f;stop-opacity:1"/><stop offset="1" style="stop-color:#a00001;stop-opacity:1"/></radialGradient><radialGradient id="_Radial17" cx="0" cy="0" r="1" gradientUnits="userSpaceOnUse" gradientTransform="matrix(92.1427,0,0,92.1427,89.7107,15.7162)"><stop offset="0" style="stop-color:#f7bfa4;stop-opacity:1"/><stop offset="0.44" style="stop-color:#e60013;stop-opacity:1"/><stop offset="0.88" style="stop-color:#d1000f;stop-opacity:1"/><stop offset="1" style="stop-color:#a00001;stop-opacity:1"/></radialGradient><radialGradient id="_Radial20" cx="0" cy="0" r="1" gradientUnits="userSpaceOnUse" gradientTransform="matrix(92.1439,0,0,92.1439,89.7106,15.7113)"><stop offset="0" style="stop-color:#f7bfa4;stop-opacity:1"/><stop offset="0.44" style="stop-color:#e60013;stop-opacity:1"/><stop offset="0.88" style="stop-color:#d1000f;stop-opacity:1"/><stop offset="1" style="stop-color:#a00001;stop-opacity:1"/></radialGradient></defs></svg>